<mxfile host="app.diagrams.net" agent="Mozilla/5.0 (Windows NT 10.0; Win64; x64) AppleWebKit/537.36 (KHTML, like Gecko) Chrome/126.0.0.0 Safari/537.36" version="24.7.6">
  <diagram id="R2lEEEUBdFMjLlhIrx00" name="Page-1">
    <mxGraphModel dx="1050" dy="557" grid="1" gridSize="10" guides="1" tooltips="1" connect="1" arrows="1" fold="1" page="1" pageScale="1" pageWidth="850" pageHeight="1100" math="0" shadow="0" extFonts="Permanent Marker^https://fonts.googleapis.com/css?family=Permanent+Marker">
      <root>
        <mxCell id="0" />
        <mxCell id="1" parent="0" />
        <mxCell id="lPcX2nXKQ7ziybrE7yr6-1" value="模糊测试用例库" style="rounded=0;whiteSpace=wrap;html=1;" vertex="1" parent="1">
          <mxGeometry x="640" y="170" width="120" height="60" as="geometry" />
        </mxCell>
        <mxCell id="lPcX2nXKQ7ziybrE7yr6-2" value="名称" style="ellipse;whiteSpace=wrap;html=1;" vertex="1" parent="1">
          <mxGeometry x="750" y="310" width="100" height="70" as="geometry" />
        </mxCell>
        <mxCell id="lPcX2nXKQ7ziybrE7yr6-3" value="用例库编号" style="ellipse;whiteSpace=wrap;html=1;" vertex="1" parent="1">
          <mxGeometry x="570" y="310" width="100" height="70" as="geometry" />
        </mxCell>
        <mxCell id="lPcX2nXKQ7ziybrE7yr6-4" value="用户" style="rounded=0;whiteSpace=wrap;html=1;" vertex="1" parent="1">
          <mxGeometry x="230" y="170" width="100" height="60" as="geometry" />
        </mxCell>
        <mxCell id="lPcX2nXKQ7ziybrE7yr6-5" value="姓名" style="ellipse;whiteSpace=wrap;html=1;" vertex="1" parent="1">
          <mxGeometry x="120" y="30" width="60" height="50" as="geometry" />
        </mxCell>
        <mxCell id="lPcX2nXKQ7ziybrE7yr6-6" value="" style="endArrow=none;html=1;rounded=0;entryX=0.5;entryY=1;entryDx=0;entryDy=0;exitX=0.25;exitY=0;exitDx=0;exitDy=0;" edge="1" parent="1" source="lPcX2nXKQ7ziybrE7yr6-4" target="lPcX2nXKQ7ziybrE7yr6-5">
          <mxGeometry width="50" height="50" relative="1" as="geometry">
            <mxPoint x="380" y="220" as="sourcePoint" />
            <mxPoint x="430" y="170" as="targetPoint" />
          </mxGeometry>
        </mxCell>
        <mxCell id="lPcX2nXKQ7ziybrE7yr6-7" value="邮箱" style="ellipse;whiteSpace=wrap;html=1;" vertex="1" parent="1">
          <mxGeometry x="200" y="20" width="90" height="60" as="geometry" />
        </mxCell>
        <mxCell id="lPcX2nXKQ7ziybrE7yr6-8" value="" style="endArrow=none;html=1;rounded=0;exitX=0.75;exitY=0;exitDx=0;exitDy=0;" edge="1" parent="1" source="lPcX2nXKQ7ziybrE7yr6-4" target="lPcX2nXKQ7ziybrE7yr6-7">
          <mxGeometry width="50" height="50" relative="1" as="geometry">
            <mxPoint x="570" y="190" as="sourcePoint" />
            <mxPoint x="620" y="140" as="targetPoint" />
          </mxGeometry>
        </mxCell>
        <mxCell id="lPcX2nXKQ7ziybrE7yr6-9" value="密码" style="ellipse;whiteSpace=wrap;html=1;" vertex="1" parent="1">
          <mxGeometry x="30" y="80" width="90" height="60" as="geometry" />
        </mxCell>
        <mxCell id="lPcX2nXKQ7ziybrE7yr6-10" value="状态" style="ellipse;whiteSpace=wrap;html=1;" vertex="1" parent="1">
          <mxGeometry x="10" y="190" width="90" height="60" as="geometry" />
        </mxCell>
        <mxCell id="lPcX2nXKQ7ziybrE7yr6-11" value="身份" style="ellipse;whiteSpace=wrap;html=1;" vertex="1" parent="1">
          <mxGeometry x="10" y="290" width="90" height="60" as="geometry" />
        </mxCell>
        <mxCell id="lPcX2nXKQ7ziybrE7yr6-12" value="" style="endArrow=none;html=1;rounded=0;exitX=1.013;exitY=0.398;exitDx=0;exitDy=0;entryX=0;entryY=0.75;entryDx=0;entryDy=0;exitPerimeter=0;" edge="1" parent="1" source="lPcX2nXKQ7ziybrE7yr6-10" target="lPcX2nXKQ7ziybrE7yr6-4">
          <mxGeometry width="50" height="50" relative="1" as="geometry">
            <mxPoint x="380" y="220" as="sourcePoint" />
            <mxPoint x="430" y="170" as="targetPoint" />
          </mxGeometry>
        </mxCell>
        <mxCell id="lPcX2nXKQ7ziybrE7yr6-13" value="" style="endArrow=none;html=1;rounded=0;exitX=0.633;exitY=-0.033;exitDx=0;exitDy=0;entryX=0.5;entryY=1;entryDx=0;entryDy=0;exitPerimeter=0;" edge="1" parent="1" source="lPcX2nXKQ7ziybrE7yr6-11" target="lPcX2nXKQ7ziybrE7yr6-4">
          <mxGeometry width="50" height="50" relative="1" as="geometry">
            <mxPoint x="380" y="220" as="sourcePoint" />
            <mxPoint x="430" y="170" as="targetPoint" />
          </mxGeometry>
        </mxCell>
        <mxCell id="lPcX2nXKQ7ziybrE7yr6-14" value="" style="endArrow=none;html=1;rounded=0;exitX=0.927;exitY=0.802;exitDx=0;exitDy=0;entryX=0;entryY=0.5;entryDx=0;entryDy=0;exitPerimeter=0;" edge="1" parent="1" source="lPcX2nXKQ7ziybrE7yr6-9" target="lPcX2nXKQ7ziybrE7yr6-4">
          <mxGeometry width="50" height="50" relative="1" as="geometry">
            <mxPoint x="380" y="220" as="sourcePoint" />
            <mxPoint x="520" y="200" as="targetPoint" />
          </mxGeometry>
        </mxCell>
        <mxCell id="lPcX2nXKQ7ziybrE7yr6-16" value="用户编号" style="ellipse;whiteSpace=wrap;html=1;" vertex="1" parent="1">
          <mxGeometry x="120" y="340" width="100" height="60" as="geometry" />
        </mxCell>
        <mxCell id="lPcX2nXKQ7ziybrE7yr6-19" value="" style="endArrow=none;html=1;rounded=0;exitX=0.652;exitY=-0.023;exitDx=0;exitDy=0;exitPerimeter=0;" edge="1" parent="1" source="lPcX2nXKQ7ziybrE7yr6-16">
          <mxGeometry width="50" height="50" relative="1" as="geometry">
            <mxPoint x="240" y="340" as="sourcePoint" />
            <mxPoint x="280" y="230" as="targetPoint" />
          </mxGeometry>
        </mxCell>
        <mxCell id="lPcX2nXKQ7ziybrE7yr6-20" value="选用例库" style="rhombus;whiteSpace=wrap;html=1;direction=west;" vertex="1" parent="1">
          <mxGeometry x="425" y="165" width="110" height="70" as="geometry" />
        </mxCell>
        <mxCell id="lPcX2nXKQ7ziybrE7yr6-21" value="" style="endArrow=none;html=1;rounded=0;exitX=1;exitY=0.5;exitDx=0;exitDy=0;entryX=1;entryY=0.5;entryDx=0;entryDy=0;" edge="1" parent="1" source="lPcX2nXKQ7ziybrE7yr6-4" target="lPcX2nXKQ7ziybrE7yr6-20">
          <mxGeometry width="50" height="50" relative="1" as="geometry">
            <mxPoint x="410" y="120" as="sourcePoint" />
            <mxPoint x="460" y="70" as="targetPoint" />
          </mxGeometry>
        </mxCell>
        <mxCell id="lPcX2nXKQ7ziybrE7yr6-22" value="" style="endArrow=none;html=1;rounded=0;entryX=0;entryY=0.5;entryDx=0;entryDy=0;exitX=0;exitY=0.5;exitDx=0;exitDy=0;" edge="1" parent="1" source="lPcX2nXKQ7ziybrE7yr6-20" target="lPcX2nXKQ7ziybrE7yr6-1">
          <mxGeometry width="50" height="50" relative="1" as="geometry">
            <mxPoint x="460" y="340" as="sourcePoint" />
            <mxPoint x="510" y="290" as="targetPoint" />
            <Array as="points" />
          </mxGeometry>
        </mxCell>
        <mxCell id="lPcX2nXKQ7ziybrE7yr6-23" value="m" style="text;html=1;align=center;verticalAlign=middle;resizable=0;points=[];autosize=1;strokeColor=none;fillColor=none;" vertex="1" parent="1">
          <mxGeometry x="365" y="168" width="30" height="30" as="geometry" />
        </mxCell>
        <mxCell id="lPcX2nXKQ7ziybrE7yr6-24" value="n" style="text;html=1;align=center;verticalAlign=middle;resizable=0;points=[];autosize=1;strokeColor=none;fillColor=none;" vertex="1" parent="1">
          <mxGeometry x="555" y="158" width="30" height="30" as="geometry" />
        </mxCell>
        <mxCell id="lPcX2nXKQ7ziybrE7yr6-26" value="" style="endArrow=none;html=1;rounded=0;exitX=0.5;exitY=0;exitDx=0;exitDy=0;entryX=0.377;entryY=1.01;entryDx=0;entryDy=0;entryPerimeter=0;" edge="1" parent="1" source="lPcX2nXKQ7ziybrE7yr6-3" target="lPcX2nXKQ7ziybrE7yr6-1">
          <mxGeometry width="50" height="50" relative="1" as="geometry">
            <mxPoint x="700" y="300" as="sourcePoint" />
            <mxPoint x="750" y="250" as="targetPoint" />
          </mxGeometry>
        </mxCell>
        <mxCell id="lPcX2nXKQ7ziybrE7yr6-27" value="" style="endArrow=none;html=1;rounded=0;entryX=0.5;entryY=1;entryDx=0;entryDy=0;exitX=0.4;exitY=0;exitDx=0;exitDy=0;exitPerimeter=0;" edge="1" parent="1" source="lPcX2nXKQ7ziybrE7yr6-2" target="lPcX2nXKQ7ziybrE7yr6-1">
          <mxGeometry width="50" height="50" relative="1" as="geometry">
            <mxPoint x="700" y="450" as="sourcePoint" />
            <mxPoint x="750" y="400" as="targetPoint" />
          </mxGeometry>
        </mxCell>
      </root>
    </mxGraphModel>
  </diagram>
</mxfile>
